<?xml version="1.0" encoding="UTF-8" standalone="no"?>
<!DOCTYPE svg PUBLIC "-//W3C//DTD SVG 1.1//EN" "http://www.w3.org/Graphics/SVG/1.1/DTD/svg11.dtd">
<svg xmlns="http://www.w3.org/2000/svg" xmlns:xl="http://www.w3.org/1999/xlink" version="1.1" viewBox="3438 4139 584 579" width="584pt" height="579pt" xmlns:dc="http://purl.org/dc/elements/1.1/">
  <metadata> Produced by OmniGraffle 7.3.1 
    <dc:date>2017-06-23 13:06:59 +0000</dc:date>
  </metadata>
  <defs/>
  <g stroke="none" stroke-opacity="1" stroke-dasharray="none" fill="none" fill-opacity="1">
    <title>Canvas 1</title>
    <rect fill="white" width="5129.363" height="4402.6106"/>
    <g>
      <title>Layer 2</title>
      <path d="M 3620.0826 4272.3343 L 3640.315 4235.834 L 3677.9067 4256.6715 L 3657.6743 4293.1717 Z" stroke="black" stroke-linecap="round" stroke-linejoin="round" stroke-width="1"/>
      <path d="M 3582.491 4251.497 L 3602.7234 4214.9967 L 3640.315 4235.834 L 3620.0826 4272.3343 Z" stroke="black" stroke-linecap="round" stroke-linejoin="round" stroke-width="1"/>
      <path d="M 3657.6743 4293.1717 L 3677.9067 4256.6715 L 3715.4983 4277.509 L 3695.266 4314.009 Z" stroke="black" stroke-linecap="round" stroke-linejoin="round" stroke-width="1"/>
      <path d="M 3640.315 4235.834 L 3660.5474 4199.334 L 3698.139 4220.1714 L 3677.9067 4256.6715 Z" stroke="black" stroke-linecap="round" stroke-linejoin="round" stroke-width="1"/>
      <path d="M 3602.7234 4214.9967 L 3622.9557 4178.4966 L 3660.5474 4199.334 L 3640.315 4235.834 Z" stroke="black" stroke-linecap="round" stroke-linejoin="round" stroke-width="1"/>
      <path d="M 3677.9067 4256.6715 L 3698.139 4220.1714 L 3735.7307 4241.0087 L 3715.4983 4277.509 Z" stroke="black" stroke-linecap="round" stroke-linejoin="round" stroke-width="1"/>
      <path d="M 3660.5474 4199.334 L 3680.7798 4162.834 L 3718.3714 4183.671 L 3698.139 4220.1714 Z" stroke="black" stroke-linecap="round" stroke-linejoin="round" stroke-width="1"/>
      <path d="M 3622.9557 4178.4966 L 3643.188 4141.9964 L 3680.7798 4162.834 L 3660.5474 4199.334 Z" stroke="black" stroke-linecap="round" stroke-linejoin="round" stroke-width="1"/>
      <path d="M 3698.139 4220.1714 L 3718.3714 4183.671 L 3755.963 4204.5086 L 3735.7307 4241.0087 Z" stroke="black" stroke-linecap="round" stroke-linejoin="round" stroke-width="1"/>
      <path d="M 3562.2586 4287.997 L 3582.491 4251.497 L 3620.0826 4272.3343 L 3599.8503 4308.8345 Z" stroke="black" stroke-linecap="round" stroke-linejoin="round" stroke-width="1"/>
      <path d="M 3542.0263 4324.497 L 3562.2586 4287.997 L 3599.8503 4308.8345 L 3579.618 4345.3346 Z" stroke="black" stroke-linecap="round" stroke-linejoin="round" stroke-width="1"/>
      <path d="M 3599.8503 4308.8345 L 3620.0826 4272.3343 L 3657.6743 4293.1717 L 3637.442 4329.672 Z" stroke="black" stroke-linecap="round" stroke-linejoin="round" stroke-width="1"/>
      <path d="M 3579.618 4345.3346 L 3599.8503 4308.8345 L 3637.442 4329.672 L 3617.2095 4366.172 Z" stroke="black" stroke-linecap="round" stroke-linejoin="round" stroke-width="1"/>
      <path d="M 3637.442 4329.672 L 3657.6743 4293.1717 L 3695.266 4314.009 L 3675.0336 4350.509 Z" stroke="black" stroke-linecap="round" stroke-linejoin="round" stroke-width="1"/>
      <path d="M 3617.2095 4366.172 L 3637.442 4329.672 L 3675.0336 4350.509 L 3654.801 4387.0094 Z" stroke="black" stroke-linecap="round" stroke-linejoin="round" stroke-width="1"/>
      <path d="M 3695.266 4314.009 L 3715.4983 4277.509 L 3753.09 4298.3463 L 3732.8576 4334.8465 Z" fill="#999"/>
      <path d="M 3695.266 4314.009 L 3715.4983 4277.509 L 3753.09 4298.3463 L 3732.8576 4334.8465 Z" stroke="black" stroke-linecap="round" stroke-linejoin="round" stroke-width="1"/>
      <path d="M 3715.4983 4277.509 L 3735.7307 4241.0087 L 3773.3223 4261.846 L 3753.09 4298.3463 Z" stroke="black" stroke-linecap="round" stroke-linejoin="round" stroke-width="1"/>
      <path d="M 3735.7307 4241.0087 L 3755.963 4204.5086 L 3793.5547 4225.346 L 3773.3223 4261.846 Z" stroke="black" stroke-linecap="round" stroke-linejoin="round" stroke-width="1"/>
      <path d="M 3675.0336 4350.509 L 3695.266 4314.009 L 3732.8576 4334.8465 L 3712.625 4371.3466 Z" stroke="black" stroke-linecap="round" stroke-linejoin="round" stroke-width="1"/>
      <path d="M 3654.801 4387.0094 L 3675.0336 4350.509 L 3712.625 4371.3466 L 3692.393 4407.847 Z" stroke="black" stroke-linecap="round" stroke-linejoin="round" stroke-width="1"/>
      <path d="M 3732.8576 4334.8465 L 3753.09 4298.3463 L 3790.6816 4319.1837 L 3770.449 4355.684 Z" stroke="black" stroke-linecap="round" stroke-linejoin="round" stroke-width="1"/>
      <path d="M 3753.09 4298.3463 L 3773.3223 4261.846 L 3810.914 4282.6835 L 3790.6816 4319.1837 Z" stroke="black" stroke-linecap="round" stroke-linejoin="round" stroke-width="1"/>
      <path d="M 3773.3223 4261.846 L 3793.5547 4225.346 L 3831.1463 4246.1834 L 3810.914 4282.6835 Z" stroke="black" stroke-linecap="round" stroke-linejoin="round" stroke-width="1"/>
      <path d="M 3712.625 4371.3466 L 3732.8576 4334.8465 L 3770.449 4355.684 L 3750.217 4392.184 Z" stroke="black" stroke-linecap="round" stroke-linejoin="round" stroke-width="1"/>
      <path d="M 3692.393 4407.847 L 3712.625 4371.3466 L 3750.217 4392.184 L 3729.9845 4428.684 Z" stroke="black" stroke-linecap="round" stroke-linejoin="round" stroke-width="1"/>
      <path d="M 3542.0263 4324.497 L 3729.9845 4428.684 L 3831.1463 4246.1834 L 3643.188 4141.9964 Z" stroke="black" stroke-linecap="round" stroke-linejoin="miter" stroke-width="3"/>
      <path d="M 3808.041 4376.521 L 3828.2732 4340.021 L 3865.865 4360.8585 L 3845.6325 4397.3586 Z" stroke="black" stroke-linecap="round" stroke-linejoin="round" stroke-width="1"/>
      <path d="M 3770.449 4355.684 L 3790.6816 4319.1837 L 3828.2732 4340.021 L 3808.041 4376.521 Z" stroke="black" stroke-linecap="round" stroke-linejoin="round" stroke-width="1"/>
      <path d="M 3845.6325 4397.3586 L 3865.865 4360.8585 L 3903.4565 4381.696 L 3883.224 4418.196 Z" stroke="black" stroke-linecap="round" stroke-linejoin="round" stroke-width="1"/>
      <path d="M 3828.2732 4340.021 L 3848.5056 4303.521 L 3886.0972 4324.3583 L 3865.865 4360.8585 Z" stroke="black" stroke-linecap="round" stroke-linejoin="round" stroke-width="1"/>
      <path d="M 3790.6816 4319.1837 L 3810.914 4282.6835 L 3848.5056 4303.521 L 3828.2732 4340.021 Z" stroke="black" stroke-linecap="round" stroke-linejoin="round" stroke-width="1"/>
      <path d="M 3865.865 4360.8585 L 3886.0972 4324.3583 L 3923.689 4345.1957 L 3903.4565 4381.696 Z" stroke="black" stroke-linecap="round" stroke-linejoin="round" stroke-width="1"/>
      <path d="M 3848.5056 4303.521 L 3868.738 4267.021 L 3906.3296 4287.858 L 3886.0972 4324.3583 Z" stroke="black" stroke-linecap="round" stroke-linejoin="round" stroke-width="1"/>
      <path d="M 3810.914 4282.6835 L 3831.1463 4246.1834 L 3868.738 4267.021 L 3848.5056 4303.521 Z" stroke="black" stroke-linecap="round" stroke-linejoin="round" stroke-width="1"/>
      <path d="M 3886.0972 4324.3583 L 3906.3296 4287.858 L 3943.9213 4308.6955 L 3923.689 4345.1957 Z" stroke="black" stroke-linecap="round" stroke-linejoin="round" stroke-width="1"/>
      <path d="M 3750.217 4392.184 L 3770.449 4355.684 L 3808.041 4376.521 L 3787.8085 4413.0214 Z" stroke="black" stroke-linecap="round" stroke-linejoin="round" stroke-width="1"/>
      <path d="M 3729.9845 4428.684 L 3750.217 4392.184 L 3787.8085 4413.0214 L 3767.576 4449.5216 Z" stroke="black" stroke-linecap="round" stroke-linejoin="round" stroke-width="1"/>
      <path d="M 3787.8085 4413.0214 L 3808.041 4376.521 L 3845.6325 4397.3586 L 3825.4 4433.859 Z" stroke="black" stroke-linecap="round" stroke-linejoin="round" stroke-width="1"/>
      <path d="M 3767.576 4449.5216 L 3787.8085 4413.0214 L 3825.4 4433.859 L 3805.1678 4470.359 Z" stroke="black" stroke-linecap="round" stroke-linejoin="round" stroke-width="1"/>
      <path d="M 3825.4 4433.859 L 3845.6325 4397.3586 L 3883.224 4418.196 L 3862.992 4454.696 Z" stroke="black" stroke-linecap="round" stroke-linejoin="round" stroke-width="1"/>
      <path d="M 3805.1678 4470.359 L 3825.4 4433.859 L 3862.992 4454.696 L 3842.7594 4491.1963 Z" stroke="black" stroke-linecap="round" stroke-linejoin="round" stroke-width="1"/>
      <path d="M 3883.224 4418.196 L 3903.4565 4381.696 L 3941.048 4402.533 L 3920.816 4439.0334 Z" fill="#999"/>
      <path d="M 3883.224 4418.196 L 3903.4565 4381.696 L 3941.048 4402.533 L 3920.816 4439.0334 Z" stroke="black" stroke-linecap="round" stroke-linejoin="round" stroke-width="1"/>
      <path d="M 3903.4565 4381.696 L 3923.689 4345.1957 L 3961.2805 4366.033 L 3941.048 4402.533 Z" stroke="black" stroke-linecap="round" stroke-linejoin="round" stroke-width="1"/>
      <path d="M 3923.689 4345.1957 L 3943.9213 4308.6955 L 3981.513 4329.533 L 3961.2805 4366.033 Z" stroke="black" stroke-linecap="round" stroke-linejoin="round" stroke-width="1"/>
      <path d="M 3862.992 4454.696 L 3883.224 4418.196 L 3920.816 4439.0334 L 3900.5834 4475.5336 Z" stroke="black" stroke-linecap="round" stroke-linejoin="round" stroke-width="1"/>
      <path d="M 3842.7594 4491.1963 L 3862.992 4454.696 L 3900.5834 4475.5336 L 3880.351 4512.0337 Z" stroke="black" stroke-linecap="round" stroke-linejoin="round" stroke-width="1"/>
      <path d="M 3920.816 4439.0334 L 3941.048 4402.533 L 3978.64 4423.3706 L 3958.4074 4459.871 Z" stroke="black" stroke-linecap="round" stroke-linejoin="round" stroke-width="1"/>
      <path d="M 3941.048 4402.533 L 3961.2805 4366.033 L 3998.872 4386.8705 L 3978.64 4423.3706 Z" stroke="black" stroke-linecap="round" stroke-linejoin="round" stroke-width="1"/>
      <path d="M 3961.2805 4366.033 L 3981.513 4329.533 L 4019.1045 4350.3703 L 3998.872 4386.8705 Z" stroke="black" stroke-linecap="round" stroke-linejoin="round" stroke-width="1"/>
      <path d="M 3900.5834 4475.5336 L 3920.816 4439.0334 L 3958.4074 4459.871 L 3938.175 4496.371 Z" stroke="black" stroke-linecap="round" stroke-linejoin="round" stroke-width="1"/>
      <path d="M 3880.351 4512.0337 L 3900.5834 4475.5336 L 3938.175 4496.371 L 3917.9427 4532.871 Z" stroke="black" stroke-linecap="round" stroke-linejoin="round" stroke-width="1"/>
      <path d="M 3729.9845 4428.684 L 3917.9427 4532.871 L 4019.1045 4350.3703 L 3831.1463 4246.1834 Z" stroke="black" stroke-linecap="round" stroke-linejoin="miter" stroke-width="3"/>
      <path d="M 3518.7574 4455.13 L 3538.99 4418.6296 L 3576.5814 4439.467 L 3556.349 4475.967 Z" stroke="black" stroke-linecap="round" stroke-linejoin="round" stroke-width="1"/>
      <path d="M 3481.1658 4434.2924 L 3501.398 4397.792 L 3538.99 4418.6296 L 3518.7574 4455.13 Z" stroke="black" stroke-linecap="round" stroke-linejoin="round" stroke-width="1"/>
      <path d="M 3556.349 4475.967 L 3576.5814 4439.467 L 3614.173 4460.3044 L 3593.9407 4496.8046 Z" stroke="black" stroke-linecap="round" stroke-linejoin="round" stroke-width="1"/>
      <path d="M 3538.99 4418.6296 L 3559.222 4382.1295 L 3596.814 4402.967 L 3576.5814 4439.467 Z" stroke="black" stroke-linecap="round" stroke-linejoin="round" stroke-width="1"/>
      <path d="M 3501.398 4397.792 L 3521.6305 4361.292 L 3559.222 4382.1295 L 3538.99 4418.6296 Z" stroke="black" stroke-linecap="round" stroke-linejoin="round" stroke-width="1"/>
      <path d="M 3576.5814 4439.467 L 3596.814 4402.967 L 3634.4055 4423.804 L 3614.173 4460.3044 Z" stroke="black" stroke-linecap="round" stroke-linejoin="round" stroke-width="1"/>
      <path d="M 3559.222 4382.1295 L 3579.4545 4345.6293 L 3617.046 4366.4667 L 3596.814 4402.967 Z" stroke="black" stroke-linecap="round" stroke-linejoin="round" stroke-width="1"/>
      <path d="M 3521.6305 4361.292 L 3541.863 4324.792 L 3579.4545 4345.6293 L 3559.222 4382.1295 Z" stroke="black" stroke-linecap="round" stroke-linejoin="round" stroke-width="1"/>
      <path d="M 3596.814 4402.967 L 3617.046 4366.4667 L 3654.638 4387.304 L 3634.4055 4423.804 Z" stroke="black" stroke-linecap="round" stroke-linejoin="round" stroke-width="1"/>
      <path d="M 3460.9334 4470.7926 L 3481.1658 4434.2924 L 3518.7574 4455.13 L 3498.525 4491.63 Z" stroke="black" stroke-linecap="round" stroke-linejoin="round" stroke-width="1"/>
      <path d="M 3440.701 4507.293 L 3460.9334 4470.7926 L 3498.525 4491.63 L 3478.2927 4528.13 Z" stroke="black" stroke-linecap="round" stroke-linejoin="round" stroke-width="1"/>
      <path d="M 3498.525 4491.63 L 3518.7574 4455.13 L 3556.349 4475.967 L 3536.1167 4512.4674 Z" stroke="black" stroke-linecap="round" stroke-linejoin="round" stroke-width="1"/>
      <path d="M 3478.2927 4528.13 L 3498.525 4491.63 L 3536.1167 4512.4674 L 3515.8843 4548.9675 Z" stroke="black" stroke-linecap="round" stroke-linejoin="round" stroke-width="1"/>
      <path d="M 3536.1167 4512.4674 L 3556.349 4475.967 L 3593.9407 4496.8046 L 3573.7083 4533.305 Z" stroke="black" stroke-linecap="round" stroke-linejoin="round" stroke-width="1"/>
      <path d="M 3515.8843 4548.9675 L 3536.1167 4512.4674 L 3573.7083 4533.305 L 3553.476 4569.805 Z" stroke="black" stroke-linecap="round" stroke-linejoin="round" stroke-width="1"/>
      <path d="M 3593.9407 4496.8046 L 3614.173 4460.3044 L 3651.7647 4481.142 L 3631.5324 4517.642 Z" fill="#999"/>
      <path d="M 3593.9407 4496.8046 L 3614.173 4460.3044 L 3651.7647 4481.142 L 3631.5324 4517.642 Z" stroke="black" stroke-linecap="round" stroke-linejoin="round" stroke-width="1"/>
      <path d="M 3614.173 4460.3044 L 3634.4055 4423.804 L 3671.997 4444.6417 L 3651.7647 4481.142 Z" stroke="black" stroke-linecap="round" stroke-linejoin="round" stroke-width="1"/>
      <path d="M 3634.4055 4423.804 L 3654.638 4387.304 L 3692.2295 4408.1415 L 3671.997 4444.6417 Z" stroke="black" stroke-linecap="round" stroke-linejoin="round" stroke-width="1"/>
      <path d="M 3573.7083 4533.305 L 3593.9407 4496.8046 L 3631.5324 4517.642 L 3611.3 4554.142 Z" stroke="black" stroke-linecap="round" stroke-linejoin="round" stroke-width="1"/>
      <path d="M 3553.476 4569.805 L 3573.7083 4533.305 L 3611.3 4554.142 L 3591.0676 4590.6423 Z" stroke="black" stroke-linecap="round" stroke-linejoin="round" stroke-width="1"/>
      <path d="M 3631.5324 4517.642 L 3651.7647 4481.142 L 3689.3564 4501.979 L 3669.124 4538.4794 Z" stroke="black" stroke-linecap="round" stroke-linejoin="round" stroke-width="1"/>
      <path d="M 3651.7647 4481.142 L 3671.997 4444.6417 L 3709.5887 4465.479 L 3689.3564 4501.979 Z" stroke="black" stroke-linecap="round" stroke-linejoin="round" stroke-width="1"/>
      <path d="M 3671.997 4444.6417 L 3692.2295 4408.1415 L 3729.821 4428.979 L 3709.5887 4465.479 Z" stroke="black" stroke-linecap="round" stroke-linejoin="round" stroke-width="1"/>
      <path d="M 3611.3 4554.142 L 3631.5324 4517.642 L 3669.124 4538.4794 L 3648.8916 4574.9795 Z" stroke="black" stroke-linecap="round" stroke-linejoin="round" stroke-width="1"/>
      <path d="M 3591.0676 4590.6423 L 3611.3 4554.142 L 3648.8916 4574.9795 L 3628.6593 4611.4797 Z" stroke="black" stroke-linecap="round" stroke-linejoin="round" stroke-width="1"/>
      <path d="M 3440.701 4507.293 L 3628.6593 4611.4797 L 3729.821 4428.979 L 3541.863 4324.792 Z" stroke="black" stroke-linecap="round" stroke-linejoin="miter" stroke-width="3"/>
      <path d="M 3706.7157 4559.317 L 3726.948 4522.8166 L 3764.5397 4543.654 L 3744.3073 4580.154 Z" stroke="black" stroke-linecap="round" stroke-linejoin="round" stroke-width="1"/>
      <path d="M 3669.124 4538.4794 L 3689.3564 4501.979 L 3726.948 4522.8166 L 3706.7157 4559.317 Z" stroke="black" stroke-linecap="round" stroke-linejoin="round" stroke-width="1"/>
      <path d="M 3744.3073 4580.154 L 3764.5397 4543.654 L 3802.1313 4564.4914 L 3781.899 4600.9915 Z" stroke="black" stroke-linecap="round" stroke-linejoin="round" stroke-width="1"/>
      <path d="M 3726.948 4522.8166 L 3747.1804 4486.3164 L 3784.772 4507.154 L 3764.5397 4543.654 Z" stroke="black" stroke-linecap="round" stroke-linejoin="round" stroke-width="1"/>
      <path d="M 3689.3564 4501.979 L 3709.5887 4465.479 L 3747.1804 4486.3164 L 3726.948 4522.8166 Z" stroke="black" stroke-linecap="round" stroke-linejoin="round" stroke-width="1"/>
      <path d="M 3764.5397 4543.654 L 3784.772 4507.154 L 3822.3637 4527.991 L 3802.1313 4564.4914 Z" stroke="black" stroke-linecap="round" stroke-linejoin="round" stroke-width="1"/>
      <path d="M 3747.1804 4486.3164 L 3767.4128 4449.816 L 3805.0044 4470.6537 L 3784.772 4507.154 Z" stroke="black" stroke-linecap="round" stroke-linejoin="round" stroke-width="1"/>
      <path d="M 3709.5887 4465.479 L 3729.821 4428.979 L 3767.4128 4449.816 L 3747.1804 4486.3164 Z" stroke="black" stroke-linecap="round" stroke-linejoin="round" stroke-width="1"/>
      <path d="M 3784.772 4507.154 L 3805.0044 4470.6537 L 3842.596 4491.491 L 3822.3637 4527.991 Z" stroke="black" stroke-linecap="round" stroke-linejoin="round" stroke-width="1"/>
      <path d="M 3648.8916 4574.9795 L 3669.124 4538.4794 L 3706.7157 4559.317 L 3686.4833 4595.817 Z" stroke="black" stroke-linecap="round" stroke-linejoin="round" stroke-width="1"/>
      <path d="M 3628.6593 4611.4797 L 3648.8916 4574.9795 L 3686.4833 4595.817 L 3666.251 4632.317 Z" stroke="black" stroke-linecap="round" stroke-linejoin="round" stroke-width="1"/>
      <path d="M 3686.4833 4595.817 L 3706.7157 4559.317 L 3744.3073 4580.154 L 3724.075 4616.6543 Z" stroke="black" stroke-linecap="round" stroke-linejoin="round" stroke-width="1"/>
      <path d="M 3666.251 4632.317 L 3686.4833 4595.817 L 3724.075 4616.6543 L 3703.8426 4653.1545 Z" stroke="black" stroke-linecap="round" stroke-linejoin="round" stroke-width="1"/>
      <path d="M 3724.075 4616.6543 L 3744.3073 4580.154 L 3781.899 4600.9915 L 3761.6666 4637.4917 Z" stroke="black" stroke-linecap="round" stroke-linejoin="round" stroke-width="1"/>
      <path d="M 3703.8426 4653.1545 L 3724.075 4616.6543 L 3761.6666 4637.4917 L 3741.434 4673.992 Z" stroke="black" stroke-linecap="round" stroke-linejoin="round" stroke-width="1"/>
      <path d="M 3781.899 4600.9915 L 3802.1313 4564.4914 L 3839.723 4585.329 L 3819.4906 4621.829 Z" fill="#999"/>
      <path d="M 3781.899 4600.9915 L 3802.1313 4564.4914 L 3839.723 4585.329 L 3819.4906 4621.829 Z" stroke="black" stroke-linecap="round" stroke-linejoin="round" stroke-width="1"/>
      <path d="M 3802.1313 4564.4914 L 3822.3637 4527.991 L 3859.9553 4548.8286 L 3839.723 4585.329 Z" stroke="black" stroke-linecap="round" stroke-linejoin="round" stroke-width="1"/>
      <path d="M 3822.3637 4527.991 L 3842.596 4491.491 L 3880.1877 4512.3284 L 3859.9553 4548.8286 Z" stroke="black" stroke-linecap="round" stroke-linejoin="round" stroke-width="1"/>
      <path d="M 3761.6666 4637.4917 L 3781.899 4600.9915 L 3819.4906 4621.829 L 3799.258 4658.329 Z" stroke="black" stroke-linecap="round" stroke-linejoin="round" stroke-width="1"/>
      <path d="M 3741.434 4673.992 L 3761.6666 4637.4917 L 3799.258 4658.329 L 3779.026 4694.829 Z" stroke="black" stroke-linecap="round" stroke-linejoin="round" stroke-width="1"/>
      <path d="M 3819.4906 4621.829 L 3839.723 4585.329 L 3877.3146 4606.166 L 3857.082 4642.6663 Z" stroke="black" stroke-linecap="round" stroke-linejoin="round" stroke-width="1"/>
      <path d="M 3839.723 4585.329 L 3859.9553 4548.8286 L 3897.547 4569.666 L 3877.3146 4606.166 Z" stroke="black" stroke-linecap="round" stroke-linejoin="round" stroke-width="1"/>
      <path d="M 3859.9553 4548.8286 L 3880.1877 4512.3284 L 3917.7793 4533.166 L 3897.547 4569.666 Z" stroke="black" stroke-linecap="round" stroke-linejoin="round" stroke-width="1"/>
      <path d="M 3799.258 4658.329 L 3819.4906 4621.829 L 3857.082 4642.6663 L 3836.85 4679.1665 Z" stroke="black" stroke-linecap="round" stroke-linejoin="round" stroke-width="1"/>
      <path d="M 3779.026 4694.829 L 3799.258 4658.329 L 3836.85 4679.1665 L 3816.6175 4715.6666 Z" stroke="black" stroke-linecap="round" stroke-linejoin="round" stroke-width="1"/>
      <path d="M 3628.6593 4611.4797 L 3816.6175 4715.6666 L 3917.7793 4533.166 L 3729.821 4428.979 Z" stroke="black" stroke-linecap="round" stroke-linejoin="miter" stroke-width="3"/>
    </g>
  </g>
</svg>
